<svg width="48" height="48" viewBox="0 0 48 48" fill="none" xmlns="http://www.w3.org/2000/svg">
<path fill-rule="evenodd" clip-rule="evenodd" d="M28.075 20.3091C28.075 21.5435 27.5953 22.7275 26.7413 23.6003C25.8874 24.4732 24.7292 24.9636 23.5216 24.9636C22.314 24.9636 21.1558 24.4732 20.3019 23.6003C19.448 22.7275 18.9683 21.5435 18.9683 20.3091C18.9683 19.0746 19.448 17.8907 20.3019 17.0178C21.1558 16.1449 22.314 15.6545 23.5216 15.6545C24.7292 15.6545 25.8874 16.1449 26.7413 17.0178C27.5953 17.8907 28.075 19.0746 28.075 20.3091ZM25.7983 20.3091C25.7983 20.9263 25.5584 21.5183 25.1315 21.9547C24.7045 22.3912 24.1254 22.6364 23.5216 22.6364C22.9178 22.6364 22.3387 22.3912 21.9118 21.9547C21.4848 21.5183 21.2449 20.9263 21.2449 20.3091C21.2449 19.6919 21.4848 19.0999 21.9118 18.6635C22.3387 18.227 22.9178 17.9818 23.5216 17.9818C24.1254 17.9818 24.7045 18.227 25.1315 18.6635C25.5584 19.0999 25.7983 19.6919 25.7983 20.3091Z" fill="black"/>
<path fill-rule="evenodd" clip-rule="evenodd" d="M23.5217 11C16.6063 11 11 16.7309 11 23.8C11 30.8691 16.6063 36.6 23.5217 36.6C30.4372 36.6 36.0435 30.8691 36.0435 23.8C36.0435 16.7309 30.4372 11 23.5217 11ZM13.2767 23.8C13.2767 26.232 14.0883 28.4708 15.4486 30.2489C16.4042 28.9667 17.6367 27.9276 19.0499 27.2126C20.4632 26.4977 22.0189 26.1262 23.5957 26.1273C25.1523 26.1254 26.6887 26.4869 28.0878 27.1843C29.4869 27.8816 30.7117 28.8964 31.6688 30.1511C32.6551 28.8288 33.3192 27.2853 33.6062 25.6485C33.8931 24.0117 33.7946 22.3286 33.3189 20.7385C32.8431 19.1483 32.0038 17.6968 30.8703 16.504C29.7368 15.3113 28.3418 14.4116 26.8006 13.8794C25.2594 13.3472 23.6164 13.1978 22.0076 13.4436C20.3987 13.6894 18.8702 14.3232 17.5486 15.2927C16.227 16.2622 15.1502 17.5395 14.4073 19.0188C13.6645 20.4982 13.2769 22.1371 13.2767 23.8ZM23.5217 34.2727C21.1698 34.2766 18.8889 33.4495 17.0651 31.9315C17.7991 30.857 18.7762 29.9797 19.9133 29.3744C21.0504 28.769 22.3137 28.4534 23.5957 28.4545C24.8618 28.4534 26.1098 28.7611 27.2361 29.3521C28.3625 29.943 29.3346 30.8002 30.0717 31.8524C28.2339 33.4198 25.9153 34.2766 23.5217 34.2727Z" fill="black"/>
</svg>
