<svg width="48" height="48" viewBox="0 0 48 48" fill="none" xmlns="http://www.w3.org/2000/svg">
<path fill-rule="evenodd" clip-rule="evenodd" d="M16.1684 20.8431C16.1684 18.4977 16.9935 16.2485 18.4622 14.5901C19.9309 12.9317 21.9229 12 24 12C26.0771 12 28.0691 12.9317 29.5378 14.5901C31.0065 16.2485 31.8316 18.4977 31.8316 20.8431V25.5981L33.87 30.2015C33.9639 30.4134 34.0082 30.6489 33.9988 30.8855C33.9893 31.1222 33.9265 31.3522 33.8162 31.5537C33.7059 31.7552 33.5518 31.9215 33.3685 32.0369C33.1853 32.1522 32.9789 32.2127 32.7691 32.2127H28.3342C28.0854 33.2969 27.5247 34.2571 26.7402 34.9426C25.9558 35.6281 24.9919 36 24 36C23.0081 36 22.0442 35.6281 21.2598 34.9426C20.4753 34.2571 19.9146 33.2969 19.6658 32.2127H15.2309C15.0211 32.2127 14.8147 32.1522 14.6315 32.0369C14.4482 31.9215 14.2941 31.7552 14.1838 31.5537C14.0735 31.3522 14.0107 31.1222 14.0012 30.8855C13.9918 30.6489 14.0361 30.4134 14.13 30.2015L16.1684 25.5981V20.8431ZM22.0622 32.2127C22.2586 32.5968 22.5411 32.9157 22.8813 33.1374C23.2214 33.3592 23.6072 33.4759 24 33.4759C24.3928 33.4759 24.7786 33.3592 25.1187 33.1374C25.4589 32.9157 25.7414 32.5968 25.9378 32.2127H22.0622ZM24 14.5266C22.5164 14.5266 21.0935 15.1921 20.0445 16.3766C18.9954 17.5612 18.406 19.1678 18.406 20.8431V25.5981C18.406 25.9901 18.3252 26.3768 18.1699 26.7275L16.8609 29.6861H31.1402L29.8312 26.7275C29.6756 26.3769 29.5944 25.9902 29.594 25.5981V20.8431C29.594 19.1678 29.0046 17.5612 27.9555 16.3766C26.9065 15.1921 25.4836 14.5266 24 14.5266Z" fill="black"/>
</svg>
