<svg width="48" height="48" viewBox="0 0 48 48" fill="none" xmlns="http://www.w3.org/2000/svg">
<path d="M24 14L21 17H17V21L14 24L17 27V31H21L24 34L27 31H31V27L34 24L31 21V17H27L24 14Z" stroke="black" stroke-width="2" stroke-linejoin="round"/>
<path d="M24 27C24.7956 27 25.5587 26.6839 26.1213 26.1213C26.6839 25.5587 27 24.7956 27 24C27 23.2044 26.6839 22.4413 26.1213 21.8787C25.5587 21.3161 24.7956 21 24 21C23.2044 21 22.4413 21.3161 21.8787 21.8787C21.3161 22.4413 21 23.2044 21 24C21 24.7956 21.3161 25.5587 21.8787 26.1213C22.4413 26.6839 23.2044 27 24 27Z" stroke="black" stroke-width="2" stroke-linejoin="round"/>
</svg>
