<svg width="16" height="20" viewBox="0 0 16 20" fill="none" xmlns="http://www.w3.org/2000/svg">
<path d="M14.3018 17.071L14.1888 18.767C14.1797 18.8904 14.1272 19.0066 14.0406 19.095C13.954 19.1834 13.839 19.2383 13.7158 19.25H1.3838C1.25338 19.2479 1.12843 19.1973 1.03337 19.1079C0.938314 19.0186 0.87999 18.897 0.869801 18.767L0.756801 17.071C0.714533 16.4854 0.87019 15.9026 1.1988 15.416L4.8678 10C4.96551 9.86163 5.01797 9.69639 5.01797 9.527C5.01797 9.35761 4.96551 9.19237 4.8678 9.054L1.4748 4.553C1.12729 4.08666 0.939653 3.52058 0.939801 2.939V1.274C0.939801 1.13503 0.995008 1.00175 1.09328 0.903476C1.19155 0.805207 1.32483 0.75 1.4638 0.75H13.6338C13.7726 0.750265 13.9056 0.805589 14.0037 0.903829C14.1017 1.00207 14.1568 1.1352 14.1568 1.274V2.94C14.1568 3.521 13.9688 4.087 13.6228 4.554L10.2518 8.974C10.1543 9.11227 10.102 9.27732 10.102 9.4465C10.102 9.61568 10.1543 9.78073 10.2518 9.919L13.8798 15.376C14.2098 15.876 14.3588 16.476 14.3008 17.072M4.9078 16.167H10.1908" stroke="#5C5A63" stroke-width="1.5" stroke-linecap="round" stroke-linejoin="round"/>
</svg>
