<svg width="37" height="37" viewBox="0 0 37 37" fill="none" xmlns="http://www.w3.org/2000/svg">
<path d="M11.6247 25.9289C12.0904 26.2578 12.6468 26.4337 13.2169 26.4323C13.787 26.4308 14.3425 26.2522 14.8066 25.921C15.277 25.5774 15.6337 25.1016 15.8293 24.5518L17.0106 20.9228C17.3137 20.0132 17.8241 19.1865 18.5016 18.5081C19.179 17.8297 20.0048 17.318 20.9139 17.0136L24.5899 15.8242C25.1334 15.6274 25.6014 15.265 25.9281 14.7881C26.2547 14.3111 26.4235 13.7437 26.4107 13.1658C26.3978 12.5878 26.204 12.0284 25.8565 11.5665C25.509 11.1045 25.0253 10.7633 24.4736 10.5908L20.8399 9.4067C19.9299 9.10386 19.1029 8.59351 18.424 7.91597C17.7452 7.23843 17.2333 6.41228 16.9287 5.5028L15.7342 1.83414C15.5418 1.29365 15.1858 0.826563 14.7157 0.497854C14.2456 0.169144 13.6847 -0.00484052 13.1111 0.000102479C12.5375 0.00504547 11.9798 0.188671 11.5154 0.525433C11.051 0.862195 10.7031 1.33535 10.5201 1.87907L9.31238 5.57945C9.0092 6.46454 8.50921 7.26931 7.85004 7.93316C7.19087 8.59701 6.38971 9.10264 5.50688 9.41198L1.83352 10.5935C1.29334 10.7862 0.826572 11.1425 0.498023 11.6126C0.169473 12.0828 -0.00455784 12.6437 9.07579e-05 13.2173C0.00473935 13.7909 0.187837 14.3488 0.523963 14.8136C0.86009 15.2784 1.33257 15.627 1.8758 15.811L5.50688 16.9872C6.42145 17.2907 7.25202 17.8047 7.93179 18.4878C8.61156 19.1709 9.12155 20.004 9.42073 20.9202L10.6152 24.5968C10.8055 25.136 11.1596 25.6011 11.6247 25.9289ZM11.8494 6.3301L13.2421 2.69051L14.4049 6.3301C14.837 7.63336 15.568 8.81743 16.5395 9.78765C17.5109 10.7579 18.6958 11.4873 19.9995 11.9177L23.7151 13.3185L20.0629 14.5C18.7604 14.9337 17.5769 15.6653 16.6066 16.6367C15.6364 17.608 14.906 18.7923 14.4736 20.0955L13.0914 23.7377L11.9049 20.0929C11.4785 18.7902 10.7546 17.6047 9.79071 16.6304C8.81468 15.6587 7.6284 14.9243 6.32348 14.4841L2.68183 13.1044L6.34462 11.915C7.63062 11.4695 8.79701 10.7343 9.75371 9.76616C10.703 8.79401 11.4196 7.61919 11.8494 6.3301ZM27.843 36.6124C28.1134 36.8025 28.4242 36.9271 28.751 36.9763C29.0777 37.0255 29.4115 36.998 29.7258 36.8959C30.0401 36.7939 30.3263 36.6201 30.5619 36.3883C30.7974 36.1565 30.9758 35.8731 31.083 35.5604L31.7384 33.5464C31.8803 33.129 32.1153 32.7494 32.4255 32.4363C32.7373 32.1191 33.1179 31.8865 33.5354 31.7491L35.5756 31.083C35.9966 30.9377 36.3609 30.6631 36.6167 30.2984C36.8724 29.9337 37.0065 29.4976 36.9998 29.0522C36.993 28.6068 36.8458 28.1749 36.5792 27.8182C36.3125 27.4614 35.94 27.198 35.5148 27.0654L33.4958 26.4047C33.0784 26.2648 32.6989 26.0303 32.3872 25.7194C32.0754 25.4085 31.8398 25.0297 31.6987 24.6126L31.0328 22.5695C30.8898 22.1492 30.6182 21.7847 30.2565 21.5275C29.8947 21.2703 29.4613 21.1334 29.0174 21.1363C28.5736 21.1393 28.142 21.2818 27.7837 21.5438C27.4254 21.8057 27.1586 22.1738 27.0212 22.5959L26.3684 24.61C26.2335 25.0243 26.0047 25.4019 25.6999 25.7132C25.395 26.0245 25.0224 26.2611 24.611 26.4047L22.5682 27.0707C22.1479 27.2132 21.783 27.4844 21.5254 27.8458C21.2677 28.2072 21.1303 28.6406 21.1327 29.0845C21.135 29.5284 21.277 29.9602 21.5384 30.3189C21.7998 30.6776 22.1675 30.9449 22.5893 31.083L24.6057 31.7358C25.0286 31.8786 25.4091 32.1138 25.7209 32.4257C26.0354 32.7402 26.268 33.1208 26.4028 33.5411L27.0714 35.5869C27.2161 36.0004 27.4858 36.3588 27.843 36.6124ZM25.4302 29.2302L24.9572 29.0769L25.4435 28.9077C26.2429 28.6267 26.9678 28.1672 27.5631 27.564C28.1584 26.9608 28.6084 26.2299 28.879 25.4267L29.0323 24.9562L29.1908 25.4346C29.4606 26.2447 29.9154 26.9808 30.5191 27.5845C31.1227 28.1883 31.8587 28.6431 32.6686 28.913L33.1839 29.0795L32.7083 29.2381C31.8967 29.5086 31.1595 29.9649 30.5552 30.5706C29.951 31.1763 29.4965 31.9147 29.2278 32.727L29.0719 33.2054L28.9186 32.7297C28.6502 31.915 28.1949 31.1745 27.5892 30.5673C26.9835 29.9601 26.2441 29.5031 25.4302 29.2328" fill="#FDD46A"/>
</svg>
