<svg width="24" height="24" viewBox="0 0 24 24" fill="none" xmlns="http://www.w3.org/2000/svg">
<path d="M14.5 24V20C14.5 19.337 14.2366 18.7011 13.7678 18.2322C13.2989 17.7634 12.663 17.5 12 17.5H11.5V24M20.5 20V18.5C20.5 18.1717 20.4353 17.8466 20.3097 17.5433C20.1841 17.24 19.9999 16.9644 19.7678 16.7322C19.5356 16.5001 19.26 16.3159 18.9567 16.1903C18.6534 16.0647 18.3283 16 18 16H17.5V20V10.5H17C16.337 10.5 15.7011 10.7634 15.2322 11.2322C14.7634 11.7011 14.5 12.337 14.5 13V21M23.5 24V20C23.5 19.337 23.2366 18.7011 22.7678 18.2322C22.2989 17.7634 21.663 17.5 21 17.5H20.292M0.5 24V21.5C0.5 20.4391 0.921427 19.4217 1.67157 18.6716C2.42172 17.9214 3.43913 17.5 4.5 17.5H8.5V10.5H11.5V10.25L11.437 10.15C9.51799 7.11242 8.4996 3.59298 8.5 0" stroke="#4C5BE2"/>
</svg>
