<svg width="27" height="27" viewBox="0 0 27 27" fill="none" xmlns="http://www.w3.org/2000/svg">
<path d="M13.3333 9.52935V4.16668M13.3333 9.52935L17.3333 12.436M13.3333 9.52935L9.33335 12.436M13.3333 4.16668L8.66668 1.91468M13.3333 4.16668L18 1.91468C16.519 1.3083 14.9337 0.997574 13.3333 1.00001C11.6813 1.00001 10.1067 1.32401 8.66668 1.91335C6.98241 2.60478 5.47107 3.65862 4.24001 5.00001M17.3333 12.436L15.8053 17.1373M17.3333 12.436L22.4253 9.52801L25.548 15.048C25.6271 14.488 25.6667 13.9165 25.6667 13.3333C25.6709 10.2474 24.5144 7.27266 22.4267 5.00001M9.33335 12.436L10.8613 17.1373M9.33335 12.436L4.24001 9.52801M15.8053 17.1373L19.3333 21.3747M15.8053 17.1373H10.8613M19.3333 21.3747L16.2173 25.328C17.8555 24.9324 19.3954 24.206 20.7425 23.1935C22.0896 22.1809 23.2154 20.9036 24.0507 19.44M19.3333 21.3747L24.0507 19.44M10.8613 17.1373L7.33334 21.3747M7.33334 21.3747L10.4493 25.328M7.33334 21.3747L2.61601 19.4387M18 1.91335C19.6843 2.60478 21.1956 3.65862 22.4267 5.00001M22.4267 5.00001V9.52935M4.24001 5.00001C2.15234 7.27266 0.995774 10.2474 1.00001 13.3333C1.00001 13.9165 1.03957 14.488 1.11868 15.048M4.24001 5.00001V9.52935M1.11868 15.048C1.33382 16.5939 1.84202 18.0833 2.61601 19.4387M1.11868 15.048L4.24135 9.52801M16.216 25.328C15.2717 25.5534 14.3042 25.667 13.3333 25.6667C12.3621 25.6671 11.3941 25.5535 10.4493 25.328M10.4493 25.328C8.81123 24.9324 7.27131 24.2047 5.92422 23.1922C4.57714 22.1796 3.45134 20.9023 2.61601 19.4387M24.0507 19.44C24.8247 18.0846 25.3329 16.5926 25.548 15.0467" stroke="black" stroke-width="2" stroke-linecap="round" stroke-linejoin="round"/>
</svg>
