<svg width="32" height="32" viewBox="0 0 32 32" fill="none" xmlns="http://www.w3.org/2000/svg">
<path d="M11.9921 2.84C11.9433 2.57763 11.7943 2.34454 11.5767 2.19002C11.3591 2.0355 11.0899 1.97166 10.8261 2.012C10.5904 2.0481 10.3761 2.16944 10.2238 2.35301C10.0716 2.53659 9.99199 2.76964 10.0001 3.008C7.57413 3.604 6.03213 4.808 5.12013 6.288C4.20813 7.768 3.99613 9.414 3.99613 10.744V11.376L2.56813 13.354C2.33389 13.6783 2.16686 14.0461 2.07688 14.4359C1.9869 14.8256 1.97578 15.2295 2.04417 15.6236C2.11256 16.0177 2.25908 16.3942 2.47512 16.7309C2.69115 17.0675 2.97234 17.3576 3.30213 17.584L15.1621 25.726C17.3285 27.213 19.8945 28.0086 22.5221 28.008H25.5201C26.1663 28.0077 26.8047 27.8675 27.3915 27.597C27.9783 27.3266 28.4996 26.9323 28.9195 26.4413C29.3395 25.9502 29.6482 25.3741 29.8243 24.7524C30.0005 24.1308 30.04 23.4784 29.9401 22.84C29.5921 20.662 27.6941 19.156 25.9601 18.39C25.3181 18.108 24.7761 17.72 24.4201 17.196L20.2261 9.976C20.4757 9.92429 20.6951 9.77679 20.8372 9.56515C20.9793 9.35351 21.0328 9.0946 20.9861 8.844C20.9373 8.58203 20.7886 8.34927 20.5714 8.1948C20.3543 8.04033 20.0856 7.97622 19.8221 8.016C16.0821 8.608 12.6021 6.208 11.9921 2.84ZM6.82413 7.336C7.18013 6.76 7.69413 6.206 8.46013 5.748L10.8001 9.802C10.9046 9.98299 10.97 10.1838 10.9923 10.3916C11.0146 10.5993 10.9932 10.8095 10.9296 11.0085C10.866 11.2075 10.7614 11.391 10.6227 11.5473C10.484 11.7036 10.3142 11.8292 10.1241 11.916L7.43813 13.144L6.00013 12.152V10.744C6.00013 9.6 6.18813 8.376 6.82613 7.336M14.5961 18.07L9.80013 14.77L14.7281 12.174C15.071 11.9932 15.4706 11.9522 15.8431 12.0596C16.2156 12.167 16.5321 12.4144 16.7261 12.75L17.8041 14.616C17.9052 14.7909 17.9699 14.9843 17.9944 15.1848C18.0189 15.3853 18.0026 15.5887 17.9466 15.7828C17.8906 15.9768 17.7959 16.1575 17.6683 16.3141C17.5408 16.4707 17.3829 16.5999 17.2041 16.694L14.5961 18.07ZM4.76013 13.73L17.3721 22.41C18.8728 23.4436 20.6519 23.9974 22.4741 23.998H27.9501C27.841 24.5632 27.5387 25.0729 27.095 25.4396C26.6513 25.8063 26.0938 26.0073 25.5181 26.008H22.5181C20.2955 26.0084 18.1248 25.3356 16.2921 24.078L4.43213 15.934C4.32225 15.8585 4.22858 15.7618 4.15663 15.6495C4.08468 15.5373 4.03591 15.4118 4.01317 15.2804C3.99044 15.149 3.99421 15.0144 4.02425 14.8845C4.0543 14.7546 4.11001 14.632 4.18813 14.524L4.76013 13.73Z" fill="black"/>
</svg>
