<svg width="33" height="33" viewBox="0 0 33 33" fill="none" xmlns="http://www.w3.org/2000/svg">
<path d="M24.75 4.125C24.203 4.125 23.6784 4.3423 23.2916 4.72909C22.9048 5.11589 22.6875 5.64049 22.6875 6.1875V26.8125C22.6875 27.3595 22.9048 27.8841 23.2916 28.2709C23.6784 28.6577 24.203 28.875 24.75 28.875H26.8125C27.3595 28.875 27.8841 28.6577 28.2709 28.2709C28.6577 27.8841 28.875 27.3595 28.875 26.8125V6.1875C28.875 5.64049 28.6577 5.11589 28.2709 4.72909C27.8841 4.3423 27.3595 4.125 26.8125 4.125H24.75ZM13.4062 12.375C13.4062 11.828 13.6235 11.3034 14.0103 10.9166C14.3971 10.5298 14.9217 10.3125 15.4688 10.3125H17.5312C18.0783 10.3125 18.6029 10.5298 18.9897 10.9166C19.3765 11.3034 19.5938 11.828 19.5938 12.375V26.8125C19.5938 27.3595 19.3765 27.8841 18.9897 28.2709C18.6029 28.6577 18.0783 28.875 17.5312 28.875H15.4688C14.9217 28.875 14.3971 28.6577 14.0103 28.2709C13.6235 27.8841 13.4062 27.3595 13.4062 26.8125V12.375ZM4.125 18.5625C4.125 18.0155 4.3423 17.4909 4.72909 17.1041C5.11589 16.7173 5.64049 16.5 6.1875 16.5H8.25C8.79701 16.5 9.32161 16.7173 9.70841 17.1041C10.0952 17.4909 10.3125 18.0155 10.3125 18.5625V26.8125C10.3125 27.3595 10.0952 27.8841 9.70841 28.2709C9.32161 28.6577 8.79701 28.875 8.25 28.875H6.1875C5.64049 28.875 5.11589 28.6577 4.72909 28.2709C4.3423 27.8841 4.125 27.3595 4.125 26.8125V18.5625Z" fill="black"/>
</svg>
