<svg width="32" height="32" viewBox="0 0 32 32" fill="none" xmlns="http://www.w3.org/2000/svg">
<path d="M16 0C24.8368 0 32 7.1632 32 16C32 24.8368 24.8368 32 16 32C7.1632 32 0 24.8368 0 16C0 7.1632 7.1632 0 16 0ZM16 3.2C12.6052 3.2 9.3495 4.54857 6.94903 6.94903C4.54857 9.3495 3.2 12.6052 3.2 16C3.2 19.3948 4.54857 22.6505 6.94903 25.051C9.3495 27.4514 12.6052 28.8 16 28.8C19.3948 28.8 22.6505 27.4514 25.051 25.051C27.4514 22.6505 28.8 19.3948 28.8 16C28.8 12.6052 27.4514 9.3495 25.051 6.94903C22.6505 4.54857 19.3948 3.2 16 3.2ZM16 6.4C16.3919 6.40005 16.7701 6.54393 17.063 6.80434C17.3559 7.06476 17.5429 7.4236 17.5888 7.8128L17.6 8V15.3376L21.9312 19.6688C22.2182 19.9567 22.3848 20.3431 22.3972 20.7494C22.4096 21.1557 22.2669 21.5515 21.998 21.8564C21.7291 22.1614 21.3543 22.3525 20.9496 22.391C20.545 22.4296 20.1408 22.3127 19.8192 22.064L19.6688 21.9312L14.8688 17.1312C14.6201 16.8823 14.4604 16.5584 14.4144 16.2096L14.4 16V8C14.4 7.57565 14.5686 7.16869 14.8686 6.86863C15.1687 6.56857 15.5757 6.4 16 6.4Z" fill="#413F46"/>
</svg>
